<?xml version="1.0" encoding="UTF-8"?><!DOCTYPE svg PUBLIC "-//W3C//DTD SVG 1.1//EN"
  "http://www.w3.org/Graphics/SVG/1.1/DTD/svg11.dtd">
<svg xmlns="http://www.w3.org/2000/svg" xmlns:xlink="http://www.w3.org/1999/xlink">
  <symbol id="Page 1" viewBox="0 0 19 13">
    <path fill-rule="evenodd" clip-rule="evenodd"
          d="M16.1393 10.4663L11.8089 6.5L16.1393 2.53365L15.5488 1.90264L9.24997 7.67188L2.95117 1.90264L2.36066 2.53365L6.69108 6.5L2.36066 10.4663L2.95117 11.0974L7.33081 7.08594L9.24997 8.84375L11.1691 7.08594L15.5488 11.0974L16.1393 10.4663ZM1.57593 0.25C0.76692 0.25 0.111084 0.948839 0.111084 1.80786V11.1921C0.111084 12.0525 0.7616 12.75 1.57593 12.75H16.924C17.733 12.75 18.3889 12.0512 18.3889 11.1921V1.80786C18.3889 0.947478 17.7383 0.25 16.924 0.25H1.57593Z"
          fill="#FFD74B"/>
  </symbol>
  <symbol id="icon-call" viewBox="0 0 18 18">
    <path d="M8.97412 7.42388C8.97412 7.61288 9.12775 7.76138 9.3155 7.76138C9.70468 7.76138 10.0187 8.07526 10.0187 8.45663C10.0187 8.64225 10.1724 8.79413 10.3601 8.79413C10.5479 8.79413 10.7015 8.64225 10.7015 8.45663C10.7015 7.70064 10.0802 7.08638 9.3155 7.08638C9.12775 7.08638 8.97412 7.23826 8.97412 7.42388ZM14.5318 8.79413C14.723 8.79413 14.8732 8.64225 14.8732 8.45663C14.8732 5.42589 12.3811 2.96214 9.3155 2.96214C9.12775 2.96214 8.97412 3.114 8.97412 3.29964C8.97412 3.48526 9.12775 3.63714 9.3155 3.63714C12.0056 3.63714 14.1904 5.80051 14.1904 8.45663C14.1904 8.64225 14.344 8.79413 14.5318 8.79413Z"/>
    <path d="M12.1047 8.45663C12.1047 8.64225 12.2583 8.79413 12.446 8.79413C12.6338 8.79413 12.7874 8.64225 12.7874 8.45663C12.7874 6.56326 11.2307 5.02426 9.3156 5.02426C9.12785 5.02426 8.97422 5.17614 8.97422 5.36176C8.97422 5.55076 9.12785 5.69926 9.3156 5.69926C10.8552 5.69926 12.1047 6.93788 12.1047 8.45663ZM9.3156 0.900002C9.12785 0.900002 8.97422 1.05188 8.97422 1.2375C8.97422 1.42314 9.12785 1.575 9.3156 1.575C13.1561 1.575 16.2797 4.66314 16.2797 8.45663C16.2797 8.64225 16.43 8.79413 16.6211 8.79413C16.8089 8.79413 16.9625 8.64225 16.9625 8.45663C16.9625 4.28852 13.5316 0.900002 9.3156 0.900002ZM12.6509 12.0139L12.2037 12.2535C11.4492 12.6619 10.8621 13.7813 9.93111 12.9375L7.50006 10.5L5.39999 8.45663C4.3449 7.1235 5.5263 6.80625 5.93936 6.05701L6.18174 5.61827C6.45484 5.11875 6.55383 4.55851 6.47191 3.99825C6.3934 3.43801 6.13736 2.92838 5.7277 2.52338C5.2293 2.03064 4.56703 1.76064 3.86037 1.76064C3.15371 1.76064 2.48802 2.03064 1.9896 2.52338L1.81551 2.69888C0.893782 3.61014 0.787955 5.1795 1.51509 7.1235C2.20125 8.97975 3.58385 10.9913 5.39999 12.7868C8.16857 15.5239 11.2512 17.1 13.4634 17.1C14.3373 17.1 15.0781 16.8536 15.6038 16.3339L15.7813 16.1584C16.2763 15.669 16.5528 15.0143 16.5563 14.3089C16.5528 13.6204 16.2695 12.9454 15.7813 12.4628C14.9586 11.6494 13.6716 11.4671 12.6509 12.0139Z"/>
  </symbol>
  <symbol id="icon-mail" viewBox="0 0 16 14">
    <path d="M1.25925 2.60026L7.25925 6.36066C7.46085 6.48666 7.72165 6.54639 7.98405 6.54639C8.24645 6.54639 8.50725 6.48666 8.70885 6.36066L14.7088 2.60026C15.1 2.35479 15.4697 1.39999 14.7521 1.39999H1.21685C0.49925 1.39999 0.86885 2.35479 1.25925 2.60026ZM14.8905 4.65639L8.70885 8.41493C8.43685 8.58106 8.24645 8.60066 7.98405 8.60066C7.72165 8.60066 7.53125 8.58106 7.25925 8.41493C6.98725 8.24879 1.55285 4.92519 1.10885 4.65546C0.79685 4.46506 0.80005 4.68813 0.80005 4.85986V11.6667C0.80005 12.0587 1.25285 12.6 1.60005 12.6H14.4001C14.7473 12.6 15.2001 12.0587 15.2001 11.6667V4.86079C15.2001 4.68906 15.2033 4.46599 14.8905 4.65639Z"/>
  </symbol>
  <symbol id="icon-phone" viewBox="0 0 45 45">
    <circle cx="22.5" cy="22.5" r="22.5" fill="#121936"/>
    <path fill-rule="evenodd" clip-rule="evenodd"
          d="M22.4999 15.0862C19.7035 15.0862 16.9003 15.5588 15.8832 16.5009C15.0393 17.2825 14.758 18.6633 14.6632 19.5375C14.6632 19.5375 14.6501 19.6239 14.6501 19.6611C14.6501 20.0039 14.9444 20.2789 15.3043 20.2789C15.3468 20.2789 16.92 20.1584 17.8685 20.0843C17.8913 20.0811 17.9143 20.0781 17.9372 20.0719C18.2904 20.0627 18.575 19.7908 18.575 19.4541L18.5782 18.237C18.5782 17.8601 18.9021 17.5574 19.3012 17.5574H25.6987C26.0978 17.5574 26.4218 17.8601 26.4218 18.237L26.425 19.4541C26.425 19.7908 26.7095 20.0627 27.0628 20.0719C27.0854 20.0781 27.1085 20.0811 27.1315 20.0843C28.0801 20.1583 29.6533 20.2789 29.6957 20.2789C30.0553 20.2789 30.3499 20.0039 30.3499 19.6611C30.3499 19.6239 30.3368 19.5375 30.3368 19.5375C30.2419 18.6633 29.9609 17.2826 29.117 16.5009C28.0996 15.5588 25.2964 15.0862 22.4999 15.0862ZM22.4999 23.1177C21.7771 23.1177 21.1916 23.6706 21.1916 24.3533C21.1916 25.036 21.7771 25.5889 22.4999 25.5889C23.2228 25.5889 23.8082 25.036 23.8082 24.3533C23.8082 23.6706 23.2228 23.1177 22.4999 23.1177ZM21.5187 20.3375V19.5653C21.5187 19.139 21.1524 18.793 20.7011 18.793C20.2498 18.793 19.8834 19.1391 19.8834 19.5653V20.3375L15.4709 24.7889C15.1669 25.07 14.9771 25.4622 14.9771 25.8948V27.1335C14.9771 27.8162 15.5626 28.3691 16.2854 28.3691H16.6125V29.1414C16.6125 29.5677 16.979 29.9136 17.4302 29.9136C17.8815 29.9136 18.2479 29.5677 18.2479 29.1414V28.3691H26.752V29.1414C26.752 29.5677 27.1182 29.9136 27.5697 29.9136C28.021 29.9136 28.3873 29.5677 28.3873 29.1414V28.3691H28.7144C29.4373 28.3691 30.0227 27.8162 30.0227 27.1335V25.8948C30.0227 25.4622 29.833 25.07 29.5289 24.7889L25.1166 20.3375V19.5653C25.1166 19.139 24.7502 18.793 24.2989 18.793C23.8476 18.793 23.4812 19.1391 23.4812 19.5653V20.3375H21.5187ZM22.4999 21.8821C23.9456 21.8821 25.1166 22.988 25.1166 24.3533C25.1166 25.7187 23.9457 26.8247 22.4999 26.8247C21.0543 26.8247 19.8834 25.7187 19.8834 24.3533C19.8834 22.988 21.0543 21.8821 22.4999 21.8821Z"
          fill="#FFD74B"/>
  </symbol>
  <symbol id="icon-telephone" viewBox="0 0 19 17">
    <path d="M9.49995 1.08615C6.7035 1.08615 3.90033 1.55882 2.88322 2.50093C2.03934 3.28252 1.75804 4.66329 1.66321 5.53753C1.66321 5.53753 1.65015 5.62393 1.65015 5.66109C1.65015 6.00391 1.94445 6.27887 2.30427 6.27887C2.34678 6.27887 3.92002 6.15837 4.86851 6.08425C4.89134 6.08112 4.91434 6.07806 4.93716 6.07191C5.29043 6.0627 5.57505 5.7908 5.57505 5.45413L5.57822 4.237C5.57822 3.86014 5.90214 3.55737 6.3012 3.55737H12.6987C13.0978 3.55737 13.4218 3.86011 13.4218 4.237L13.425 5.45413C13.425 5.7908 13.7095 6.0627 14.0628 6.07191C14.0854 6.0781 14.1085 6.08112 14.1315 6.08425C15.0801 6.15834 16.6533 6.27887 16.6957 6.27887C17.0553 6.27887 17.3499 6.00391 17.3499 5.66109C17.3499 5.62393 17.3368 5.53753 17.3368 5.53753C17.2419 4.66329 16.9609 3.28255 16.117 2.50093C15.0996 1.55882 12.2964 1.08615 9.49995 1.08615ZM9.49995 9.11773C8.7771 9.11773 8.19164 9.67064 8.19164 10.3533C8.19164 11.036 8.7771 11.5889 9.49995 11.5889C10.2228 11.5889 10.8082 11.036 10.8082 10.3533C10.8082 9.67064 10.2228 9.11773 9.49995 9.11773ZM8.51873 6.33752V5.56528C8.51873 5.13902 8.15236 4.79304 7.70106 4.79304C7.24977 4.79304 6.8834 5.13905 6.8834 5.56528V6.33752L2.47095 10.7889C2.16689 11.07 1.97713 11.4622 1.97713 11.8948V13.1335C1.97713 13.8162 2.56264 14.3691 3.28545 14.3691H3.61254V15.1414C3.61254 15.5677 3.97895 15.9136 4.43025 15.9136C4.88154 15.9136 5.24792 15.5677 5.24792 15.1414V14.3691H13.752V15.1414C13.752 15.5677 14.1182 15.9136 14.5697 15.9136C15.021 15.9136 15.3873 15.5677 15.3873 15.1414V14.3691H15.7144C16.4373 14.3691 17.0227 13.8162 17.0227 13.1335V11.8948C17.0227 11.4622 16.833 11.07 16.5289 10.7889L12.1166 6.33752V5.56528C12.1166 5.13902 11.7502 4.79304 11.2989 4.79304C10.8476 4.79304 10.4812 5.13905 10.4812 5.56528V6.33752H8.51873ZM9.49995 7.8821C10.9456 7.8821 12.1166 8.98799 12.1166 10.3533C12.1166 11.7187 10.9457 12.8247 9.49995 12.8247C8.05426 12.8247 6.88336 11.7187 6.88336 10.3533C6.88336 8.98795 8.05426 7.8821 9.49995 7.8821Z"/>
  </symbol>
</svg>
