<?xml version="1.0" encoding="UTF-8"?><!DOCTYPE svg PUBLIC "-//W3C//DTD SVG 1.1//EN"
  "http://www.w3.org/Graphics/SVG/1.1/DTD/svg11.dtd">
<svg xmlns="http://www.w3.org/2000/svg" xmlns:xlink="http://www.w3.org/1999/xlink">
  <symbol id="icon-call" viewBox="0 0 18 18">
    <path
      d="M8.97 7.42c0 .2.16.34.35.34.38 0 .7.32.7.7 0 .18.15.33.34.33.19 0 .34-.15.34-.33 0-.76-.62-1.37-1.38-1.37a.34.34 0 00-.35.33zm5.56 1.37c.2 0 .34-.15.34-.33 0-3.03-2.49-5.5-5.55-5.5a.34.34 0 00-.35.34c0 .19.16.34.35.34a4.85 4.85 0 014.87 4.82c0 .18.15.33.34.33z"/>
    <path
      d="M12.1 8.46c0 .18.16.33.35.33.18 0 .34-.15.34-.33 0-1.9-1.56-3.44-3.47-3.44a.34.34 0 00-.35.34c0 .2.16.34.35.34a2.78 2.78 0 012.78 2.76zM9.32.9a.34.34 0 00-.35.34c0 .18.16.33.35.33a6.93 6.93 0 016.96 6.89c0 .18.15.33.34.33.19 0 .34-.15.34-.33A7.61 7.61 0 009.32.9zm3.33 11.11l-.45.24c-.75.41-1.34 1.53-2.27.69L7.5 10.5 5.4 8.46c-1.06-1.34.13-1.65.54-2.4l.24-.44a2.57 2.57 0 00-.45-3.1c-.5-.49-1.16-.76-1.87-.76-.7 0-1.37.27-1.87.76l-.17.18c-.93.91-1.03 2.48-.3 4.42A16.39 16.39 0 005.4 12.8c2.77 2.73 5.85 4.31 8.06 4.31.88 0 1.62-.25 2.14-.77l.18-.17a2.6 2.6 0 000-3.7c-.82-.81-2.1-1-3.13-.45z"/>
  </symbol>
  <symbol id="icon-fb" viewBox="0 0 11 21">
    <path
      d="M7.49 20.81H2.13v-9.67H0V6.35h2.07c-.16-2.17.23-3.75 1.2-4.83A4.88 4.88 0 016.86 0h3.75v4.61H7.67a4.7 4.7 0 00-.2 1.74h3.15v4.79H7.46l.02 9.67zM3.32 19.7h2.97V10h3.14V7.5H6.29v-.57c0-1.5 0-2.84.78-3.34l.15-.1h2.2V1.12H6.9a3.82 3.82 0 00-2.74 1.13c-.79.92-1.11 2.47-.87 4.6l.08.63h-2.2V10h2.15v9.68z"/>
  </symbol>
  <symbol id="icon-inst" viewBox="0 0 24 24">
    <path
      d="M17.28 2.4a4.33 4.33 0 014.32 4.32v10.56a4.33 4.33 0 01-4.32 4.32H6.72a4.33 4.33 0 01-4.31-4.32V6.72A4.33 4.33 0 016.72 2.4h10.56zm0-1.44H6.72A5.76 5.76 0 00.96 6.72v10.56a5.76 5.76 0 005.76 5.76h10.56a5.76 5.76 0 005.76-5.76V6.72A5.76 5.76 0 0017.28.96z"/>
    <path
      d="M12.01 7.756a4.253 4.253 0 11-4.254 4.253 4.243 4.243 0 014.253-4.253zm0-1.44a5.693 5.693 0 105.682 5.693 5.681 5.681 0 00-5.683-5.693zM17.904 7.413a1.286 1.286 0 100-2.573 1.286 1.286 0 000 2.573z"/>
  </symbol>
  <symbol id="icon-mail" viewBox="0 0 16 14">
    <path
      d="M1.26 2.6l6 3.76c.2.13.46.19.72.19.27 0 .53-.06.73-.19l6-3.76c.39-.25.76-1.2.04-1.2H1.22c-.72 0-.35.95.04 1.2zm13.63 2.06L8.71 8.4a1.2 1.2 0 01-.73.2 1.2 1.2 0 01-.72-.2L1.1 4.66c-.31-.2-.31.03-.31.2v6.8c0 .4.45.94.8.94h12.8c.35 0 .8-.54.8-.93v-6.8c0-.18 0-.4-.3-.21z"/>
  </symbol>
  <symbol id="icon-telephone" viewBox="0 0 19 17">
    <path
      d="M9.5 1.09c-2.8 0-5.6.47-6.62 1.41-.84.78-1.12 2.16-1.22 3.04l-.01.12c0 .34.3.62.65.62l2.57-.2h.07c.35-.02.64-.29.64-.63V4.24c0-.38.32-.68.72-.68h6.4c.4 0 .72.3.72.68v1.21c0 .34.29.61.64.62l.07.01 2.57.2c.36 0 .65-.28.65-.62l-.01-.12c-.1-.88-.38-2.26-1.22-3.04C15.1 1.56 12.3 1.1 9.5 1.1zm0 8.03c-.72 0-1.3.55-1.3 1.23 0 .69.58 1.24 1.3 1.24.72 0 1.3-.55 1.3-1.24 0-.68-.58-1.23-1.3-1.23zm-.98-2.78v-.77a.8.8 0 00-.82-.78.8.8 0 00-.82.78v.77l-4.4 4.45c-.31.28-.5.67-.5 1.1v1.24c0 .69.58 1.24 1.3 1.24h.33v.77c0 .43.37.77.82.77a.8.8 0 00.82-.77v-.77h8.5v.77c0 .43.37.77.82.77a.8.8 0 00.82-.77v-.77h.32c.73 0 1.31-.55 1.31-1.24V11.9c0-.43-.19-.82-.5-1.1l-4.4-4.45v-.77a.8.8 0 00-.82-.78.8.8 0 00-.82.78v.77H8.52zm.98 1.54c1.45 0 2.62 1.1 2.62 2.47a2.55 2.55 0 01-2.62 2.47 2.55 2.55 0 01-2.62-2.47A2.55 2.55 0 019.5 7.88z"/>
  </symbol>
  <symbol id="icon-vk" viewBox="0 0 23 12">
    <path
      d="M17.77 11.83a2.98 2.98 0 01-1.55-.47 7.56 7.56 0 01-1.32-1.15c-.32-.33-.87-.88-1.07-.88-.21 0-.36.69-.35 1.18 0 .33-.12.66-.35.9-.26.22-.57.35-.9.38H10.8c-2.05-.05-4-.85-5.51-2.25C2.56 7 .2 2.18.12 1.97a1.01 1.01 0 01.1-1.1C.52.61.88.48 1.25.5h3.12c.24.04.48.13.7.26.2.14.36.33.46.55.32.7.7 1.36 1.1 2 .97 1.5 1.4 1.85 1.56 1.92.17-.7.22-1.43.14-2.15.03-.33-.03-.66-.15-.96a.98.98 0 00-.58-.22l-.54-.51c-.1-.5.44-.93.82-1.1A6.38 6.38 0 0110.2.02h.52c.54-.01 1.07.04 1.6.15 1.26.27 1.21 1.3 1.16 2.49 0 .34-.03.75-.03 1.21v.36c-.03.33-.01.66.06.98a6.8 6.8 0 001.54-1.86c.43-.67.8-1.38 1.13-2.1a1.18 1.18 0 011.18-.72h3.46c.74 0 1.18.22 1.36.64.18.42.12 1.25-1.75 3.46l-.74.85a5.5 5.5 0 00-.92 1.19c.28.32.6.6.95.85.85.65 1.6 1.43 2.22 2.3a1.2 1.2 0 01.2 1.27 1.71 1.71 0 01-1.4.75l-2.81.03-.17-.03zM13.83 8.2c.66 0 1.24.6 1.86 1.22.33.37.7.7 1.11.97.31.21.67.32 1.04.32h.07l2.82-.04c.14 0 .28-.04.4-.1l-.07-.12a9.86 9.86 0 00-1.99-2.04c-.88-.75-1.33-1.1-1.39-1.68-.05-.58.37-1.08 1.2-2.04l.74-.83a8.05 8.05 0 001.52-2.21 4.16 4.16 0 00-.5 0H17.4a.4.4 0 00-.18 0c-.34.8-.75 1.56-1.22 2.29-1.4 2.11-2.06 2.4-2.53 2.4a.88.88 0 01-.41-.1c-.75-.44-.75-1.39-.7-2.08v-.32c0-.49 0-.9.03-1.27.06-1.26 0-1.27-.28-1.33-.45-.1-.91-.14-1.38-.12h-.5c-.48-.01-.95.01-1.42.07.07.05.13.12.19.19.3.49.46 1.06.43 1.63.1 1.24.05 2.85-.74 3.24-.14.07-.29.1-.44.1-.7 0-1.38-.66-2.54-2.44-.45-.69-.85-1.4-1.2-2.14l-.05-.08a.9.9 0 00-.24-.08H1.2c.44.92 2.51 4.97 4.84 7.09 1.3 1.2 2.99 1.9 4.76 1.97h1.37a.74.74 0 00.2-.07v-.07c0-.2 0-1.95 1.17-2.25.1-.04.19-.06.29-.08z"/>
  </symbol>
</svg>
