<svg style="display: none" xmlns="http://www.w3.org/2000/svg">
  <symbol viewbox="0 0 18 18" id="icon-call">
    <path d="M8.97 7.42c0 .2.16.34.35.34.38 0 .7.32.7.7 0 .18.15.33.34.33.19 0 .34-.15.34-.33 0-.76-.62-1.37-1.38-1.37a.34.34 0 00-.35.33zm5.56 1.37c.2 0 .34-.15.34-.33 0-3.03-2.49-5.5-5.55-5.5a.34.34 0 00-.35.34c0 .19.16.34.35.34a4.85 4.85 0 014.87 4.82c0 .18.15.33.34.33z"/>
    <path d="M12.1 8.46c0 .18.16.33.35.33.18 0 .34-.15.34-.33 0-1.9-1.56-3.44-3.47-3.44a.34.34 0 00-.35.34c0 .2.16.34.35.34a2.78 2.78 0 012.78 2.76zM9.32.9a.34.34 0 00-.35.34c0 .18.16.33.35.33a6.93 6.93 0 016.96 6.89c0 .18.15.33.34.33.19 0 .34-.15.34-.33A7.61 7.61 0 009.32.9zm3.33 11.11l-.45.24c-.75.41-1.34 1.53-2.27.69L7.5 10.5 5.4 8.46c-1.06-1.34.13-1.65.54-2.4l.24-.44a2.57 2.57 0 00-.45-3.1c-.5-.49-1.16-.76-1.87-.76-.7 0-1.37.27-1.87.76l-.17.18c-.93.91-1.03 2.48-.3 4.42A16.39 16.39 0 005.4 12.8c2.77 2.73 5.85 4.31 8.06 4.31.88 0 1.62-.25 2.14-.77l.18-.17a2.6 2.6 0 000-3.7c-.82-.81-2.1-1-3.13-.45z"/>
  </symbol>
  <symbol viewbox="0 0 16 10" id="icon-filter">
    <path d="M7.17 0H15v2H7.17zM7.17 8H15v2H7.17zM0 4h7.83v2H0zM3.91 0h1.96v2H3.91zM3.91 8h1.96v2H3.91zM9.13 4h1.96v2H9.13zM0 0h2.61v2H0zM0 8h2.61v2H0zM12.39 4H15v2h-2.61z"/>
  </symbol>
  <symbol viewbox="0 0 8 11" id="icon-arrow">
    <path d="M3.65 10.35c.2.2.5.2.7 0l3.19-3.18a.5.5 0 10-.71-.7L4 9.28 1.17 6.46a.5.5 0 10-.7.71l3.18 3.18zM3.5 0v10h1V0h-1z"/>
  </symbol>
  <symbol viewbox="0 0 32 32" id="icon-location">
    <g clip-path="url(#clip0)">
      <path d="M16 .13a11.9 11.9 0 00-11.9 11.9c0 7.65 5.75 10.99 7.02 12.51 3.05 3.67 3.22 7.33 4.88 7.33 1.66 0 1.83-3.66 4.88-7.33 1.27-1.52 7.02-4.86 7.02-12.5A11.9 11.9 0 0016 .13zm0 19.84A7.93 7.93 0 1116 4.1a7.93 7.93 0 010 15.87zm0-11.9A3.97 3.97 0 1016 16a3.97 3.97 0 000-7.93z"/>
      <circle cx="16" cy="12.03" r="1.32"/>
    </g>
    <defs>
      <clipPath id="clip0">
        <path fill="#fff" transform="translate(.13 .13)" d="M0 0h31.73v31.73H0z"/>
      </clipPath>
    </defs>
  </symbol>
  <symbol viewbox="0 0 14 14" id="icon-user">
    <path d="M4.38 3.93A2.7 2.7 0 007 6.69a2.7 2.7 0 002.63-2.76A2.7 2.7 0 007 1.17a2.7 2.7 0 00-2.63 2.76zm7.29 8.9h.58v-.61a4.2 4.2 0 00-4.08-4.3H5.83a4.2 4.2 0 00-4.08 4.3v.61h9.92z"/>
  </symbol>
  <symbol viewbox="0 0 14 17" id="icon-run">
    <path d="M9.56 4.25c.6 0 1.1-.63 1.1-1.42 0-.78-.5-1.41-1.1-1.41-.6 0-1.1.63-1.1 1.41 0 .79.5 1.42 1.1 1.42zM8.9 7.77c.12.24.3.43.5.53.22.1.45.13.67.06l1.81-.59-.26-1.37-1.82.58-.75-1.46a1.14 1.14 0 00-.7-.6l-2.1-.55a.87.87 0 00-.7.12c-.22.13-.4.36-.5.63l-.9 2.35.97.64.91-2.35 1.08.28-2.79 6H1.9v1.42h2.43c.38 0 .74-.27.94-.69l1.05-2.26 2.83.73 1 3.86 1.04-.45-1-3.86a1.5 1.5 0 00-.31-.61 1.03 1.03 0 00-.51-.33l-1.67-.43.97-2.1.23.45z"/>
  </symbol>
  <symbol viewbox="0 0 15 17" id="icon-bicycle">
    <path d="M10.96 13.97a2.6 2.6 0 110-5.2 2.6 2.6 0 010 5.2zm0-4.3a1.7 1.7 0 100 3.39 1.7 1.7 0 000-3.39zM3.5 13.97a2.6 2.6 0 110-5.2 2.6 2.6 0 010 5.2zm0-4.3a1.7 1.7 0 100 3.39 1.7 1.7 0 000-3.39zM9.04 4.25c.12 0 .23-.03.34-.08a.9.9 0 00.3-.23c.08-.1.15-.22.2-.35.04-.13.06-.27.06-.4a1.08 1.08 0 00-.26-.75.9.9 0 00-.3-.24.79.79 0 00-.7 0 .9.9 0 00-.28.23 1.23 1.23 0 000 1.5c.08.1.18.18.3.24.1.05.22.08.34.08z"/>
    <path d="M10.38 6.38H9.14a.1.1 0 01-.05-.02.13.13 0 01-.04-.05l-.9-1.94a1 1 0 00-.27-.36.81.81 0 00-.37-.18.75.75 0 00-.4.04.86.86 0 00-.36.25L4.78 6.45c-.16.2-.26.47-.26.75 0 .58.35.78.52.9A88.03 88.03 0 016.76 9.3l.02.07v2.3c0 .28.19.52.43.54a.4.4 0 00.18-.04.45.45 0 00.15-.1.61.61 0 00.14-.38V8.82a.6.6 0 00-.05-.24.52.52 0 00-.14-.19l-1.04-.88a.13.13 0 01-.03-.04.15.15 0 01-.01-.11l.02-.05 1.19-1.49a.11.11 0 01.04-.03.1.1 0 01.06-.01.1.1 0 01.04.02l.04.05.62 1.3c.04.09.1.16.16.2a.4.4 0 00.23.08h1.58a.4.4 0 00.18-.05c.06-.02.1-.06.15-.12a.55.55 0 00.1-.18.62.62 0 00.03-.2c-.02-.3-.23-.51-.47-.51z"/>
  </symbol>
  <symbol viewbox="0 0 14 16" id="icon-bus">
    <g clip-path="url(#clip0)">
      <path d="M3.5 10.86c0-.32-.1-.59-.32-.81a1.02 1.02 0 00-.76-.34 1.13 1.13 0 00-1.08 1.14c0 .32.1.6.31.82.21.22.47.33.77.33.3 0 .55-.11.76-.33.22-.23.32-.5.32-.81zm8.66 0c0-.32-.1-.59-.31-.81a1.02 1.02 0 00-.77-.34c-.3 0-.55.12-.76.34-.22.22-.32.5-.32.8 0 .32.1.6.32.82.2.22.46.33.76.33s.56-.11.77-.33c.2-.23.31-.5.31-.81zm-.38-3.54l-.61-3.43a.59.59 0 00-.2-.33.5.5 0 00-.34-.13H2.87a.5.5 0 00-.35.13c-.1.08-.16.2-.19.33l-.6 3.43c-.03.18 0 .34.11.47.11.14.25.21.42.21h8.98a.5.5 0 00.42-.2c.1-.14.14-.3.12-.48zM9.86 1.86a.43.43 0 00-.12-.3.38.38 0 00-.28-.13H4.04c-.11 0-.2.04-.28.12a.43.43 0 00-.12.3c0 .13.04.23.12.31.07.08.17.13.28.13h5.42c.11 0 .2-.05.28-.13a.43.43 0 00.12-.3zm3.39 6.47v5.38h-1.09v1.15c0 .31-.1.58-.31.8-.21.23-.47.34-.77.34-.3 0-.55-.11-.76-.33-.22-.23-.32-.5-.32-.81V13.7H3.5v1.15c0 .31-.1.58-.32.8-.2.23-.46.34-.76.34s-.56-.11-.77-.33c-.2-.23-.31-.5-.31-.81V13.7H.25V8.33c0-.67.07-1.33.21-2l.88-4.04c.05-.47.32-.88.82-1.23.5-.35 1.15-.61 1.95-.8C4.9.1 5.79 0 6.75 0c.96 0 1.85.09 2.64.27.8.18 1.45.44 1.95.8.5.34.77.75.82 1.22l.9 4.05c.12.6.19 1.27.19 1.99z"/>
    </g>
    <defs>
      <clipPath id="clip0">
        <path fill="#fff" transform="translate(.25)" d="M0 0h13v16H0z"/>
      </clipPath>
    </defs>
  </symbol>
  <symbol viewbox="0 0 15 16" id="icon-plane">
    <g clip-path="url(#clip0)">
      <path d="M11.6.8c-.5.13-1 .27-1.18.62L8.96 4.49 1.31 6.55l-.32.98 5.83.51L5.8 10.7l-2.22.6-.57 1.04 1.6.17.17.85c.08.3.37.5.61.43l.74-.2.84 1.56.57-1.05-.52-2.54 1.63-2.22 3 5.74.62-.76-1.79-8.75 1.76-2.86c.2-.35.08-.91-.04-1.48-.05-.28-.36-.5-.6-.43z" fill="#1D2E5B"/>
    </g>
    <defs>
      <clipPath id="clip0">
        <path fill="#fff" transform="translate(.25)" d="M0 0h14v16H0z"/>
      </clipPath>
    </defs>
  </symbol>
  <symbol viewbox="0 0 24 24" id="icon-inst">
    <path d="M17.28 2.4a4.33 4.33 0 014.32 4.32v10.56a4.33 4.33 0 01-4.32 4.32H6.72a4.33 4.33 0 01-4.31-4.32V6.72A4.33 4.33 0 016.72 2.4h10.56zm0-1.44H6.72A5.76 5.76 0 00.96 6.72v10.56a5.76 5.76 0 005.76 5.76h10.56a5.76 5.76 0 005.76-5.76V6.72A5.76 5.76 0 0017.28.96z"/>
    <path d="M12.01 7.756a4.253 4.253 0 11-4.254 4.253 4.244 4.244 0 014.253-4.253zm0-1.44a5.693 5.693 0 105.682 5.693 5.681 5.681 0 00-5.683-5.693zM17.904 7.413a1.286 1.286 0 100-2.573 1.286 1.286 0 000 2.573z"/>
  </symbol>
  <symbol viewbox="0 0 31 16" id="icon-vk">
    <path d="M23.95 15.78a4.05 4.05 0 01-2.08-.63c-.65-.44-1.25-.96-1.78-1.53-.44-.44-1.17-1.18-1.45-1.18s-.48.92-.47 1.57c0 .45-.17.88-.47 1.2-.35.3-.78.47-1.22.5h-1.92a11.32 11.32 0 01-7.43-3C3.45 9.36.29 2.92.16 2.64A1.34 1.34 0 01.3 1.15c.38-.32.86-.5 1.36-.48h4.2c.33.05.66.17.95.35.27.18.49.43.63.73.43.92.92 1.81 1.48 2.67 1.3 2 1.89 2.46 2.1 2.56.23-.94.3-1.91.19-2.87A2.7 2.7 0 0011 2.83a1.33 1.33 0 00-.77-.3l-.73-.68C9.37 1.19 10.1.62 10.6.4a8.69 8.69 0 013.15-.38h.7c.73-.02 1.45.05 2.16.2 1.7.36 1.64 1.73 1.57 3.3 0 .47-.05 1-.05 1.63v.48c-.04.43-.01.87.09 1.3a9.1 9.1 0 002.07-2.48 20.4 20.4 0 001.52-2.8 1.58 1.58 0 011.6-.95h4.28a2 2 0 01.38 0c1 0 1.59.29 1.83.85s.17 1.66-2.36 4.6l-1 1.14c-.49.47-.9 1-1.24 1.59.37.43.8.81 1.28 1.14 1.15.86 2.16 1.9 3 3.07a1.6 1.6 0 01.26 1.68 2.3 2.3 0 01-1.88 1l-3.8.05-.22-.04zm-5.31-4.84c.9 0 1.68.79 2.5 1.62.45.49.96.92 1.5 1.3.42.27.9.42 1.4.42h.1l3.8-.05c.2-.01.38-.06.55-.14l-.1-.16a13.22 13.22 0 00-2.68-2.72c-1.2-1-1.8-1.47-1.87-2.24-.07-.77.49-1.44 1.6-2.71l1-1.11c.85-.86 1.54-1.86 2.06-2.95a5.66 5.66 0 00-.67 0h-4.37a.55.55 0 00-.24 0 20.5 20.5 0 01-1.65 3.05c-1.9 2.82-2.78 3.2-3.41 3.2-.2 0-.4-.05-.56-.14-1-.57-1-1.84-.94-2.76v-.43c0-.65 0-1.21.05-1.7.08-1.67 0-1.68-.38-1.77a8.56 8.56 0 00-1.86-.16h-.7a13 13 0 00-1.9.1c.1.07.19.15.26.25.4.65.61 1.4.59 2.18.13 1.65.06 3.8-1 4.32-.2.09-.4.13-.6.13-.93 0-1.85-.88-3.42-3.26-.6-.91-1.14-1.87-1.61-2.85L6 2.26c-.1-.05-.21-.1-.32-.11H1.62C2.2 3.37 5 8.77 8.14 11.6a10 10 0 006.42 2.63h1.85a1 1 0 00.27-.1v-.1c0-.26 0-2.6 1.58-3l.38-.1z"/>

  </symbol>
  <symbol viewbox="0 0 14 28" id="icon-fb">
    <path d="M9.53 27.75H2.71v-12.9H0V8.47h2.63c-.2-2.89.3-5 1.52-6.44A6.21 6.21 0 018.74 0h4.78v6.15H9.76c-.22.75-.3 1.54-.25 2.32h4v6.38h-4l.02 12.9zm-5.31-1.5H8v-12.9h4V10H8v-.76c0-2 0-3.79 1-4.46l.19-.13H12V1.5H8.78A4.67 4.67 0 005.29 3c-1 1.23-1.41 3.29-1.1 6.14l.1.83H1.5v3.38h2.72v12.9z"/>
  </symbol>
  <symbol class="icon-phone" viewbox="0 0 40 40" id="icon-phone">
    <circle class="icon-phone__circle" cx="20" cy="20" r="20"/>
    <path d="M19.7743 19.2239C19.7743 19.4129 19.9279 19.5614 20.1157 19.5614C20.5048 19.5614 20.8189 19.8753 20.8189 20.2566C20.8189 20.4423 20.9725 20.5941 21.1603 20.5941C21.348 20.5941 21.5017 20.4423 21.5017 20.2566C21.5017 19.5006 20.8804 18.8864 20.1157 18.8864C19.9279 18.8864 19.7743 19.0383 19.7743 19.2239ZM25.332 20.5941C25.5231 20.5941 25.6733 20.4423 25.6733 20.2566C25.6733 17.2259 23.1813 14.7621 20.1157 14.7621C19.9279 14.7621 19.7743 14.914 19.7743 15.0996C19.7743 15.2853 19.9279 15.4371 20.1157 15.4371C22.8057 15.4371 24.9906 17.6005 24.9906 20.2566C24.9906 20.4423 25.1442 20.5941 25.332 20.5941Z"/>
    <path d="M22.9047 20.2566C22.9047 20.4422 23.0583 20.5941 23.2461 20.5941C23.4339 20.5941 23.5875 20.4422 23.5875 20.2566C23.5875 18.3632 22.0308 16.8242 20.1157 16.8242C19.9279 16.8242 19.7743 16.9761 19.7743 17.1617C19.7743 17.3507 19.9279 17.4992 20.1157 17.4992C21.6553 17.4992 22.9047 18.7379 22.9047 20.2566ZM20.1157 12.7C19.9279 12.7 19.7743 12.8519 19.7743 13.0375C19.7743 13.2231 19.9279 13.375 20.1157 13.375C23.9562 13.375 27.0798 16.4631 27.0798 20.2566C27.0798 20.4422 27.23 20.5941 27.4212 20.5941C27.6089 20.5941 27.7626 20.4422 27.7626 20.2566C27.7626 16.0885 24.3317 12.7 20.1157 12.7ZM23.4509 23.8139L23.0037 24.0535C22.2493 24.4619 21.6622 25.5812 20.7312 24.7375L18.3001 22.3L16.2 20.2566C15.1449 18.9235 16.3264 18.6062 16.7394 17.857L16.9818 17.4182C17.2549 16.9187 17.3539 16.3585 17.272 15.7982C17.1934 15.238 16.9374 14.7284 16.5278 14.3234C16.0294 13.8306 15.3671 13.5606 14.6604 13.5606C13.9538 13.5606 13.2881 13.8306 12.7896 14.3234L12.6156 14.4989C11.6938 15.4101 11.588 16.9795 12.3151 18.9235C13.0013 20.7797 14.3839 22.7912 16.2 24.5867C18.9686 27.3239 22.0513 28.9 24.2634 28.9C25.1373 28.9 25.8781 28.6536 26.4039 28.1339L26.5814 27.9584C27.0764 27.469 27.3529 26.8142 27.3563 26.1089C27.3529 25.4204 27.0695 24.7454 26.5814 24.2627C25.7587 23.4494 24.4717 23.2671 23.4509 23.8139Z"/>
  </symbol>
  <symbol viewbox="0 0 26 26" id="icon-business">
    <path d="M22.1 21.97v-3.25a5.67 5.67 0 00-2.73-4.94c-.91-.65-2.86-.78-3.77-.78l-2.08 2.21.78 1.69v3.9L13 22.23l-1.3-1.43v-3.9l.91-1.69L10.4 13c-1.04 0-2.99.13-3.9.78a5.36 5.36 0 00-1.95 2.21 5 5 0 00-.65 2.73v3.25S7.28 23.4 13 23.4s9.1-1.43 9.1-1.43zM13 2.73c-2.47 0-3.9 2.34-3.51 4.94.39 2.6 1.69 4.42 3.51 4.42 1.82 0 3.12-1.82 3.51-4.42.39-2.73-1.04-4.94-3.51-4.94z"/>
  </symbol>
  <symbol class="icon-mail" viewbox="0 0 40 40" id="icon-mail">
    <circle class="icon-mail__circle" cx="20" cy="20" r="20"/>
    <path d="M12.0166 15.3253L18.7666 19.5557C18.9934 19.6975 19.2868 19.7647 19.582 19.7647C19.8772 19.7647 20.1706 19.6975 20.3974 19.5557L27.1474 15.3253C27.5875 15.0491 28.0033 13.975 27.196 13.975H11.9689C11.1616 13.975 11.5774 15.0491 12.0166 15.3253ZM27.3517 17.6384L20.3974 21.8668C20.0914 22.0537 19.8772 22.0757 19.582 22.0757C19.2868 22.0757 19.0726 22.0537 18.7666 21.8668C18.4606 21.6799 12.3469 17.9408 11.8474 17.6374C11.4964 17.4232 11.5 17.6741 11.5 17.8673V25.525C11.5 25.966 12.0094 26.575 12.4 26.575H26.8C27.1906 26.575 27.7 25.966 27.7 25.525V17.8684C27.7 17.6752 27.7036 17.4242 27.3517 17.6384Z"/>
  </symbol>
</svg>
